<svg xmlns="http://www.w3.org/2000/svg" viewBox="0 -0.5 14 15" shape-rendering="crispEdges"><path fill="#655561" d="M2-.5h10v15H2z"/><path fill="#655561" d="M1 .5h12v13H1z"/><path fill="#655561" d="M0 1.5h14v11H0z"/><path fill="#fff" d="M2 .5h10v11H2z"/><path fill="#fff" d="M1 1.5h12v9H1z"/><path stroke="#7d929e" d="M1 11h1m10 0h1M1 12h12M2 13h10"/><path fill="#655561" d="M4 3.5h1v4H4zm5 0h1v4H9z"/><path stroke="rgba(109,107,119,0.5)" d="M1 0h1m10 0h1M0 1h1m12 0h1M0 13h1m12 0h1M1 14h1m10 0h1"/></svg>